<svg id="Слой_1" data-name="Слой 1" xmlns="http://www.w3.org/2000/svg" viewBox="0 0 4251.97 1451.34"><defs><style>.cls-1,.cls-2{fill:#fff;}.cls-2{fill-rule:evenodd;}</style></defs><title>logo-sp</title><rect class="cls-1" x="1229.97" y="238.7" width="23.48" height="920.45"/><path class="cls-2" d="M1882.41,326.44h.19v.11A398.57,398.57,0,0,1,2281,724.7h.11v.6H2281a398.52,398.52,0,0,1-398.15,398.37v.11h-1.07v-.11a398.85,398.85,0,0,1-96.81-11.94,392.37,392.37,0,0,1-65.75-22.87l0,0c-107.76-48.43-190.21-143.48-221.53-259.45l29.62-30.31.93.22,8.4,2,6.81,1.32,114-5.27a249.86,249.86,0,0,0,108.45-63.81v-.08A249.12,249.12,0,0,0,1839.22,557h-.11v-.82h.11a250.18,250.18,0,0,0-19.32-96.12h0c-2.25-5.41-4.45-10.3-6.45-14.31a249.72,249.72,0,0,0-29.68-46.39l-15.2-14,.85-2.25-1.87-1.92,11.39-41.1,1-.27v0q3.14-.84,6.59-1.71l.77-2,1.57,1.45c1.6-.39,3.25-.77,5-1.15q7.37-1.69,14.11-3h.11a401.45,401.45,0,0,1,74.35-7ZM1834,379l206.88,190.31L2116.67,466a348,348,0,0,0-234.07-90.28v.11h-.19A358.64,358.64,0,0,0,1834,379Zm330.74,140.39L2131.7,653l99.53,91.74q.54-9.67.55-19.48h-.11v-.6h.11a347.64,347.64,0,0,0-67-205.29Zm53.95,300.74-129.84,6.21-52.51,212.41a350.58,350.58,0,0,0,182.35-218.62Zm-287.25,250.91-142.7-74.7-38.32,52.23a350,350,0,0,0,131.34,25.89v-.11h1.07v.11a351.09,351.09,0,0,0,48.61-3.42Zm-225.89-44.67,39-53.18L1570.3,882a350.93,350.93,0,0,0,135.24,144.4Zm68.66-234.49,107-4.94,130.33-177.6L1880.78,488.85a302.33,302.33,0,0,1,7.64,67.36h.11V557h-.11a298.42,298.42,0,0,1-87.56,211.3l-.05-.06a300.34,300.34,0,0,1-26.61,23.64Zm414.11-19.62-70.12-64.6-17,68.78,87.12-4.17ZM2076.84,669.55,2048,643,1944.57,784l105.23-5,27-109.38Zm-39.39,159.26L1907.09,835l-88.9,121.16,166.27,87,53-214.43Zm-193.72,9.26-180.47,8.63a298.86,298.86,0,0,1-40.16,7.35l150.92,79Z"/><rect class="cls-1" x="2525.84" y="238.7" width="23.47" height="920.45"/><path class="cls-2" d="M2827,549.32c.28,65.55,49.85,98.6,98.88,98.32,41,0,84.27-21.48,91.44-76h-48.47c-5.23,20.66-22,31.12-43,31.12-29.2-.27-47.93-25.06-47.93-53.43,0-31.95,19-53.71,47.93-53.71,20.66,0,35.25,8.82,42.14,28.37h48.47c-7.44-51.51-50.68-73.27-90.61-73.27-49,0-98.6,33.05-98.88,98.6Zm370.4-37.18c0-33.33-26.72-59.22-60-59.22h-82.35v192.8h90.34c39.39,0,59.77-27.27,60-60.87,0-17.07-7.44-31.4-23.14-39.38,9.37-7.71,15.15-21.76,15.15-33.33Zm-55.63,57c19.83,0,20.1,32.78.28,32.78H3102.7V569.14ZM3133.55,497c19.83,0,19.83,31.12.28,31.12H3102.7V497Zm230.76-44.07H3243.95v192.8h122.84v-43.8H3293V568h65.55V524.25H3293V497h71.33V452.92ZM3437.52,497V645.72h48.75V497h47.1V452.92H3390.15V497Zm312.28,52.61c0-133.3-197.75-133.3-197.75,0,0,133.58,197.75,133.58,197.75,0Zm-147.08,0c0-69.41,96.67-69.41,96.67,0,0,70-96.67,70-96.67,0ZM2999.19,719.2H2838.89V912h50.4V764.65h59.5V912h50.4V719.2Zm235.16,96.68c0-133.3-197.76-133.3-197.76,0,0,133.58,197.76,133.58,197.76,0Zm-147.08,0c0-69.41,96.67-69.41,96.67,0,0,70-96.67,70-96.67,0Zm212.58-52.61V912h48.75V763.27h47.1V719.2H3252.48v44.07Zm312.29,52.61c0,133.58-197.76,133.58-197.76,0,0-133.3,197.76-133.3,197.76,0Zm-147.08,0c0,70,96.67,70,96.67,0,0-69.41-96.67-69.41-96.67,0Zm257.2-16.8L3771.83,912H3820v-7.16l-87-188.12h-21.21L3625,904.84V912h48.2l49-112.93Zm309,16.8c0-133.3-197.75-133.3-197.75,0,0,133.58,197.75,133.58,197.75,0Zm-147.08,0c0-69.41,96.67-69.41,96.67,0,0,70-96.67,70-96.67,0ZM4118.77,912V838.46a111.86,111.86,0,0,0,19-1.1L4180.19,912H4235v-7.71l-52.33-84.83c38.28-24.51,37.18-60.87,37.18-100.26h-50.68c0,36.08,2.48,73-46.82,73h-3.58v-73h-50.13V912Z"/><path class="cls-2" d="M13.23,693.61l169.31-82L109.62,428.13l31.05-35.37,182.56,46L385.3,251.39l46.51-7.1L542,396.8,710.06,293.1l40.23,24.44L736.66,505.27l195.27,28.58,15.17,44.66L816,713.56,947.26,861l-17,43.89L742.92,924.09l5.77,197.25L707.43,1144,551.65,1038.31l-122.44,154.9-46.1-9.21-51.41-181.11-193.37,40-29.48-36.69,77-171.79L12.12,740.72l1.11-47.11ZM225,649.83,82.77,718.76l131.82,71.05,124-73.27L225,649.83ZM177.94,456.73l54,135.89,2.37,1.4L390.6,685.8l36.78-21.72L505.16,436l-85.94-119L365.66,478.77,334.16,496.1,177.94,456.73Zm515.85-91.35L556.13,450.31,555.2,453l-57.87,169.7L683.06,513l10.72-147.61Zm179.29,213.4L727,557.4,633.76,828.65l78.5,46.11.76-.88,160.32-16.43L760.13,730.29l.8-36L873.07,578.78ZM694.35,1071.21,690,923l-73.77-43.35L577.61,992l116.74,79.18ZM419.8,1119.87,522.4,990.07l3.5-10.24,43.82-127.52L444.18,778.57,378,972.63l41.8,147.24ZM178.34,980.65l151.77-31.37,67.54-198-6.94-4.07L244.2,833.73,178.34,980.65Zm482.38-393-189.62,112-9.49,27.86,125.65,73.82Z"/><path class="cls-2" d="M2852.08,1036.53V987.88h30.82v48.65h5.69v-53.8h-42.2v53.8Zm90.46,0v-5.15h-32.36v-21.13h25.6v-5.15h-25.6V987.88h31.21v-5.15H2904.5v53.8Zm17.6,0v-23.75h16.91c10.76,0,17.22-6,17.22-15.14,0-8.92-6.46-14.91-17.22-14.91h-22.6v53.8Zm0-48.65h16.52c7.61,0,12,3.53,12,9.92,0,6.22-4.38,9.83-12,9.83h-16.52V987.88Zm84.24,48.65v-5.15H3012v-21.13h25.6v-5.15H3012V987.88h31.21v-5.15h-36.89v53.8Zm16.21-46.73c-5.15,5.3-7.68,11.91-7.68,19.83s2.54,14.61,7.68,19.91a27.55,27.55,0,0,0,38.66,0,29.31,29.31,0,0,0,0-39.74,27.37,27.37,0,0,0-38.66,0Zm4.23,35.89a24.06,24.06,0,0,1,0-32.13,21,21,0,0,1,30.29,0,24.07,24.07,0,0,1,0,32.13,21,21,0,0,1-30.29,0Zm81.4,11.76c6.46,0,11.84-1.62,16.22-4.76v-5.92a24.53,24.53,0,0,1-16,5.38,21.5,21.5,0,0,1-15.75-6.38c-4.23-4.23-6.3-9.61-6.3-16.14s2.08-11.83,6.3-16.06a20.93,20.93,0,0,1,15.6-6.45,27.37,27.37,0,0,1,15,4.53V985.8a27.37,27.37,0,0,0-15.07-4c-7.92,0-14.45,2.61-19.75,7.91s-7.84,11.84-7.84,19.91,2.61,14.76,7.84,20a26.94,26.94,0,0,0,19.75,7.84Zm34-.93V991.33l17.76,23.52h3.46l17.6-23.52v45.19h5.61v-53.8h-5.53l-19.45,26.06-19.45-26.06h-5.61v53.8Zm113.37,0v-53.8H3288v53.8Zm-33.2,0c12.07,0,19.29-6.69,19.29-16.83a15.75,15.75,0,0,0-5.15-12.22c-3.38-3.15-8.07-4.69-14.14-4.69h-14.15V982.73h-5.69v53.8Zm-14.15-28.59h13.76c8.92,0,14,4.3,14,11.76s-5.15,11.68-14,11.68h-13.76v-23.44Zm88.62,29.52c6.45,0,11.84-1.62,16.22-4.76v-5.92a24.55,24.55,0,0,1-16,5.38,21.49,21.49,0,0,1-15.75-6.38c-4.23-4.23-6.31-9.61-6.31-16.14s2.08-11.83,6.31-16.06a20.92,20.92,0,0,1,15.6-6.45,27.35,27.35,0,0,1,15,4.53V985.8a27.35,27.35,0,0,0-15.06-4c-7.92,0-14.45,2.61-19.75,7.91s-7.84,11.84-7.84,19.91,2.61,14.76,7.84,20a27,27,0,0,0,19.75,7.84Zm21.83-1a14.66,14.66,0,0,0,2.15.08c8.07-.31,12.3-4.53,14.45-13.67,1.54-6.37,2-12.81,2.31-22.71l.38-12.27h22.45v48.57h5.69V982.73H3370.5l-.31,14.66c-.08,3.61-.15,6.76-.31,9.36s-.38,5.3-.69,8.14a35.08,35.08,0,0,1-1.23,6.91c-1.61,5.83-4.15,9.58-9.07,9.58a12.37,12.37,0,0,1-2.15-.15v5.22Zm65.64.08,17-24.21h16.45v24.21h5.69v-53.8h-24.14c-10.53,0-16.91,5.76-16.91,14.6,0,7.61,4.61,13.14,12.68,14.45l-17.37,24.75Zm15.37-29.36c-7.38,0-11.69-3.46-11.69-9.61s4.31-9.68,11.69-9.68h18.06v19.29Zm42,29.36,17-24.21h16.45v24.21h5.69v-53.8H3494.7c-10.53,0-16.91,5.76-16.91,14.6,0,7.61,4.61,13.14,12.68,14.45l-17.37,24.75Zm15.37-29.36c-7.38,0-11.68-3.46-11.68-9.61s4.3-9.68,11.68-9.68h18.06v19.29Zm85.31,30.29c6.46,0,11.84-1.62,16.22-4.76v-5.92a24.55,24.55,0,0,1-16,5.38,21.49,21.49,0,0,1-15.75-6.38c-4.23-4.23-6.31-9.61-6.31-16.14s2.08-11.83,6.31-16.06a20.92,20.92,0,0,1,15.6-6.45,27.35,27.35,0,0,1,15,4.53V985.8a27.35,27.35,0,0,0-15.06-4c-7.92,0-14.45,2.61-19.75,7.91s-7.84,11.84-7.84,19.91,2.61,14.76,7.84,20a27,27,0,0,0,19.75,7.84Zm54.11-.93c11,0,17.68-6,17.68-15,0-7.92-4.61-13.22-11.69-14.38,4.38-1.61,7.07-5.76,7.07-11.37,0-8.07-5.92-13.07-15.45-13.07h-23.29v53.8Zm-20-26.06h19c8,0,12.6,3.84,12.6,10.38,0,6.69-4.61,10.53-12.6,10.53h-19v-20.9Zm0-22.6h16.68c6.84,0,10.76,3.15,10.76,8.91,0,5.61-3.92,8.69-10.76,8.69h-16.68v-17.6Zm88.93,48.65v-5.15H3671.1v-21.13h25.6v-5.15h-25.6V987.88h31.21v-5.15h-36.89v53.8Zm31.28,0V987.88h18.75v-5.15h-43v5.15H3729v48.65Z"/></svg>